<svg width="741" height="873" viewBox="0 0 741 873" fill="none" xmlns="http://www.w3.org/2000/svg">
<g filter="url(#filter0_f_207_2)">
<path d="M163 377.623C163 334.753 197.753 300 240.623 300C283.492 300 318.245 334.753 318.245 377.623C318.245 420.492 283.492 455.245 240.623 455.245C197.753 455.245 163 420.492 163 377.623Z" fill="#FF3636"/>
</g>
<g filter="url(#filter1_f_207_2)">
<path d="M254 479.5C254 427.861 295.861 386 347.5 386C399.139 386 441 427.861 441 479.5C441 531.139 399.139 573 347.5 573C295.861 573 254 531.139 254 479.5Z" fill="#4C56BB" fill-opacity="0.7"/>
</g>
<defs>
<filter id="filter0_f_207_2" x="-137" y="0" width="755.245" height="755.245" filterUnits="userSpaceOnUse" color-interpolation-filters="sRGB">
<feFlood flood-opacity="0" result="BackgroundImageFix"/>
<feBlend mode="normal" in="SourceGraphic" in2="BackgroundImageFix" result="shape"/>
<feGaussianBlur stdDeviation="150" result="effect1_foregroundBlur_207_2"/>
</filter>
<filter id="filter1_f_207_2" x="-46" y="86" width="787" height="787" filterUnits="userSpaceOnUse" color-interpolation-filters="sRGB">
<feFlood flood-opacity="0" result="BackgroundImageFix"/>
<feBlend mode="normal" in="SourceGraphic" in2="BackgroundImageFix" result="shape"/>
<feGaussianBlur stdDeviation="150" result="effect1_foregroundBlur_207_2"/>
</filter>
</defs>
</svg>
