<svg xmlns="http://www.w3.org/2000/svg" fill="none" viewBox="2.17 2.17 47.67 45.54">
<path d="M26.0001 2.16626C19.7459 2.10271 13.7224 4.52491 9.25333 8.90053C4.78427 13.2761 2.23535 19.2471 2.16675 25.5013C2.19085 30.4438 3.78079 35.2515 6.70822 39.2339C9.63564 43.2163 13.7499 46.1684 18.4601 47.6663C19.6517 47.8829 20.0851 47.1679 20.0851 46.5396C20.0851 45.9113 20.0851 44.5246 20.0851 42.5746C13.4551 43.9829 12.0467 39.4546 12.0467 39.4546C11.6054 38.033 10.6671 36.8179 9.40342 36.0313C7.23675 34.6013 9.57675 34.6229 9.57675 34.6229C10.3257 34.723 11.0422 34.9914 11.6726 35.4079C12.303 35.8245 12.8309 36.3783 13.2167 37.0279C13.8891 38.1939 14.9924 39.0492 16.2891 39.4098C17.5858 39.7705 18.9723 39.6076 20.1501 38.9563C20.2712 37.7698 20.8085 36.6645 21.6667 35.8363C16.3801 35.2513 10.8334 33.2579 10.8334 24.3096C10.7861 21.9754 11.6486 19.7143 13.2384 18.0046C12.5144 16.0006 12.5999 13.7933 13.4767 11.8513C13.4767 11.8513 15.4917 11.2229 19.9767 14.2346C23.8809 13.1942 27.9893 13.1942 31.8934 14.2346C36.4434 11.2229 38.3934 11.8513 38.3934 11.8513C39.2703 13.7933 39.3558 16.0006 38.6317 18.0046C40.2585 19.683 41.1677 21.9289 41.1667 24.2663C41.1667 33.2363 35.5767 35.2079 30.3334 35.7929C30.9075 36.3503 31.351 37.028 31.632 37.7773C31.913 38.5266 32.0245 39.3288 31.9584 40.1263V46.5179C31.9584 46.5179 32.3917 47.8829 33.5834 47.6446C38.2802 46.1375 42.3806 43.1847 45.299 39.2079C48.2174 35.2311 49.8044 30.4339 49.8334 25.5013C49.7648 19.2471 47.2159 13.2761 42.7468 8.90053C38.2778 4.52491 32.2542 2.10271 26.0001 2.16626Z" fill="white"/>
</svg>