<svg width="207" height="26" viewBox="0 0 207 26" fill="none" xmlns="http://www.w3.org/2000/svg">
<path d="M23.1406 13C23.1406 15.6172 22.6445 17.8437 21.6523 19.6797C20.668 21.5156 19.3242 22.918 17.6211 23.8867C15.9258 24.8477 14.0195 25.3281 11.9023 25.3281C9.76953 25.3281 7.85547 24.8437 6.16016 23.875C4.46484 22.9062 3.125 21.5039 2.14063 19.668C1.15625 17.832 0.664063 15.6094 0.664063 13C0.664063 10.3828 1.15625 8.15625 2.14063 6.32031C3.125 4.48437 4.46484 3.08594 6.16016 2.125C7.85547 1.15625 9.76953 0.671874 11.9023 0.671874C14.0195 0.671874 15.9258 1.15625 17.6211 2.125C19.3242 3.08594 20.668 4.48437 21.6523 6.32031C22.6445 8.15625 23.1406 10.3828 23.1406 13ZM17.9961 13C17.9961 11.3047 17.7422 9.875 17.2344 8.71094C16.7344 7.54688 16.0273 6.66406 15.1133 6.0625C14.1992 5.46094 13.1289 5.16016 11.9023 5.16016C10.6758 5.16016 9.60547 5.46094 8.69141 6.0625C7.77734 6.66406 7.06641 7.54688 6.55859 8.71094C6.05859 9.875 5.80859 11.3047 5.80859 13C5.80859 14.6953 6.05859 16.125 6.55859 17.2891C7.06641 18.4531 7.77734 19.3359 8.69141 19.9375C9.60547 20.5391 10.6758 20.8398 11.9023 20.8398C13.1289 20.8398 14.1992 20.5391 15.1133 19.9375C16.0273 19.3359 16.7344 18.4531 17.2344 17.2891C17.7422 16.125 17.9961 14.6953 17.9961 13ZM26.8994 25V0.999999H31.9736V11.582H32.29L40.9268 0.999999H47.0088L38.1025 11.7461L47.1143 25H41.0439L34.4697 15.1328L31.9736 18.1797V25H26.8994ZM49.6514 25V0.999999H65.8232V5.18359H54.7256V10.9023H64.9912V15.0859H54.7256V20.8164H65.8701V25H49.6514ZM73.9941 25H68.5566L76.8418 0.999999H83.3809L91.6543 25H86.2168L80.2051 6.48437H80.0176L73.9941 25ZM73.6543 15.5664H86.498V19.5273H73.6543V15.5664ZM114.617 0.999999V25H110.234L99.793 9.89453H99.6172V25H94.543V0.999999H98.9961L109.355 16.0937H109.566V0.999999H114.617Z" fill="#1C222B"/>
<path d="M117.896 5.18359V0.999999H137.606V5.18359H130.259V25H125.243V5.18359H117.896ZM140.853 25V0.999999H157.024V5.18359H145.927V10.9023H156.192V15.0859H145.927V20.8164H157.071V25H140.853ZM182.234 9.40234H177.102C177.008 8.73828 176.816 8.14844 176.527 7.63281C176.238 7.10937 175.867 6.66406 175.414 6.29687C174.961 5.92969 174.438 5.64844 173.844 5.45312C173.258 5.25781 172.621 5.16016 171.934 5.16016C170.691 5.16016 169.609 5.46875 168.688 6.08594C167.766 6.69531 167.051 7.58594 166.543 8.75781C166.035 9.92187 165.781 11.3359 165.781 13C165.781 14.7109 166.035 16.1484 166.543 17.3125C167.059 18.4766 167.777 19.3555 168.699 19.9492C169.621 20.543 170.688 20.8398 171.898 20.8398C172.578 20.8398 173.207 20.75 173.785 20.5703C174.371 20.3906 174.891 20.1289 175.344 19.7852C175.797 19.4336 176.172 19.0078 176.469 18.5078C176.773 18.0078 176.984 17.4375 177.102 16.7969L182.234 16.8203C182.102 17.9219 181.77 18.9844 181.238 20.0078C180.715 21.0234 180.008 21.9336 179.117 22.7383C178.234 23.5352 177.18 24.168 175.953 24.6367C174.734 25.0977 173.355 25.3281 171.816 25.3281C169.676 25.3281 167.762 24.8437 166.074 23.875C164.395 22.9062 163.066 21.5039 162.09 19.668C161.121 17.832 160.637 15.6094 160.637 13C160.637 10.3828 161.129 8.15625 162.113 6.32031C163.098 4.48437 164.434 3.08594 166.121 2.125C167.809 1.15625 169.707 0.671874 171.816 0.671874C173.207 0.671874 174.496 0.867187 175.684 1.25781C176.879 1.64844 177.938 2.21875 178.859 2.96875C179.781 3.71094 180.531 4.62109 181.109 5.69922C181.695 6.77734 182.07 8.01172 182.234 9.40234ZM185.873 25V0.999999H190.947V10.9023H201.248V0.999999H206.311V25H201.248V15.0859H190.947V25H185.873Z" fill="#A5B5CD"/>
</svg>
